<?xml version="1.0" standalone="no"?>
<!DOCTYPE svg PUBLIC "-//W3C//DTD SVG 20010904//EN"
 "http://www.w3.org/TR/2001/REC-SVG-20010904/DTD/svg10.dtd">
<svg version="1.0" xmlns="http://www.w3.org/2000/svg"
 width="300.000000pt" height="300.000000pt" viewBox="0 0 300.000000 300.000000"
 preserveAspectRatio="xMidYMid meet">

<g transform="translate(0.000000,300.000000) scale(0.100000,-0.100000)"
fill="#000000" stroke="none">
<path d="M0 1500 l0 -1500 1500 0 1500 0 0 1500 0 1500 -1500 0 -1500 0 0
-1500z m1715 1121 c404 -84 722 -401 811 -811 19 -86 19 -334 0 -420 -31 -140
-95 -289 -172 -397 -91 -128 -271 -276 -415 -342 l-64 -29 -3 25 c-2 14 2 56
8 93 l12 68 65 39 c78 45 186 143 248 223 114 148 175 333 175 530 0 249 -92
466 -271 636 -115 108 -232 173 -390 216 -116 31 -317 31 -434 -1 -109 -29
-235 -91 -324 -159 -254 -194 -388 -547 -322 -854 40 -192 111 -327 241 -457
53 -53 115 -103 162 -131 l76 -45 7 -55 c3 -30 9 -70 12 -88 7 -43 -7 -42
-101 7 -256 132 -435 343 -525 616 -171 522 107 1094 628 1292 166 63 398 81
576 44z m-78 -346 c113 -21 246 -90 333 -171 148 -140 219 -304 219 -504 0
-193 -63 -345 -202 -487 -28 -29 -55 -53 -59 -53 -4 0 -8 26 -8 59 0 32 -7 74
-15 94 -14 34 -14 36 16 73 44 56 68 105 90 191 24 96 24 150 0 245 -28 109
-65 174 -140 249 -103 102 -217 149 -366 149 -151 0 -273 -50 -376 -154 -96
-97 -148 -226 -148 -366 0 -111 29 -204 92 -298 l36 -53 -15 -61 c-9 -33 -14
-76 -12 -94 2 -19 1 -34 -3 -34 -4 0 -39 34 -78 76 -77 83 -139 193 -166 299
-21 80 -21 251 0 330 96 360 439 579 802 510z m-29 -394 c75 -38 132 -128 132
-208 0 -42 -25 -110 -55 -149 -36 -47 -117 -84 -184 -84 -72 1 -127 26 -172
79 -63 73 -75 163 -36 253 53 118 198 169 315 109z m47 -586 c41 -21 68 -44
88 -73 26 -39 29 -51 29 -121 -1 -43 -8 -130 -17 -192 -8 -63 -20 -152 -26
-199 -17 -137 -28 -183 -54 -221 -67 -102 -263 -106 -338 -8 -32 44 -42 84
-62 254 -9 77 -20 167 -25 200 -31 209 -22 266 53 330 56 48 114 65 213 62 67
-2 90 -7 139 -32z"/>
</g>
</svg>
