<svg xmlns="http://www.w3.org/2000/svg" viewBox="0 0 512 512">
  <path fill="#FFFC00" d="M496.926 366.6c-3.373-9.176-9.8-14.086-17.112-18.153-1.376-.806-2.641-1.451-3.72-1.947-2.182-1.128-4.414-2.22-6.634-3.373-22.8-12.09-40.609-27.341-52.959-45.42a102.889 102.889 0 0 1-9.089-16.12c-1.054-3.013-1-4.724-.248-6.287a10.221 10.221 0 0 1 2.914-3.038c3.918-2.591 7.96-5.22 10.7-6.993 4.885-3.162 8.754-5.667 11.246-7.44 9.362-6.547 15.909-13.5 20-21.278a42.371 42.371 0 0 0 2.1-35.191c-6.2-16.318-21.613-26.449-40.287-26.449a55.543 55.543 0 0 0-11.718 1.24c-1.029.224-2.059.459-3.063.72.174-11.16-.074-22.94-1.066-34.534-3.522-40.758-17.794-62.123-32.674-79.16A130.167 130.167 0 0 0 332.1 36.443C309.515 23.547 283.91 17 256 17s-53.552 6.547-76.09 19.443a129.735 129.735 0 0 0-33.12 26.818c-14.88 17.038-29.152 38.44-32.674 79.161-.992 11.594-1.24 23.435-1.079 34.533-1-.26-2.021-.5-3.051-.719a55.461 55.461 0 0 0-11.717-1.24c-18.687 0-34.125 10.131-40.3 26.449a42.423 42.423 0 0 0 2.046 35.228c4.105 7.774 10.652 14.731 20.014 21.278 2.48 1.736 6.361 4.24 11.246 7.44 2.641 1.71 6.434 4.166 10.164 6.57a12.758 12.758 0 0 1 3.463 3.5c.806 1.651.856 3.386-.161 6.149a102.015 102.015 0 0 1-9.089 16.12c-12.338 18.079-30.147 33.33-52.959 45.42-2.22 1.165-4.452 2.245-6.634 3.373-1.054.5-2.32 1.141-3.72 1.947-7.349 4.08-13.676 8.977-17.1 18.153-3.434 9.263-1.029 19.556 7.4 31.6a18.74 18.74 0 0 0 3.768 3.781c11.031 8.7 22.694 14.269 36.015 17.2 3.6.794 6.391 1.868 8.229 4.9 1.8 2.914 1.736 6.447 2.058 10.477.434 5.5.744 8.977 2.294 12.288 3.016 6.447 9.164 10.9 19.39 14.058 10.7 3.3 24.653 4.762 43.923 4.614a168.023 168.023 0 0 1 24.257 1.984c12.2 1.868 24.653 7.145 38.6 13.2 18.364 7.985 39.16 17.012 67.2 17.012 1.2 0 2.393-.037 3.595-.1h2.208c.992.062 2.059.1 3.138.1 28.04 0 48.835-9.027 67.2-17.012 13.911-6.055 26.363-11.332 38.6-13.2a167.2 167.2 0 0 1 24.257-1.984c19.283.161 33.234-1.3 43.923-4.614 10.238-3.162 16.374-7.611 19.39-14.058 1.563-3.324 1.868-6.831 2.294-12.288.334-4.18.272-7.75 2.146-10.7 1.762-2.8 4.378-3.831 8.067-4.676 13.321-2.926 24.984-8.5 36.015-17.2a18.74 18.74 0 0 0 3.768-3.781c8.318-12.048 10.787-22.341 7.304-31.604z"/>
</svg>
