<svg xmlns="http://www.w3.org/2000/svg" viewBox="0 0 448 512">
  <path fill="#000000" d="M331.5 235.7c2.2.9 4.2 1.9 6.3 2.8c29.2 14.1 50.6 35.2 61.8 61.4c15.7 36.5 17.2 95.4-30.3 143.4c-36.7 37.1-81.4 53.3-143.3 53.9h-3.3c-55.1-.5-99.1-17-130.8-49c-37.3-37.6-57.1-92.4-58.9-162.8v-14c1.8-70.4 21.6-125.2 58.9-162.8c31.7-32 75.6-48.4 130.8-49h3.3c55.2.5 100.5 17 134.4 48.8c17.1 16 30.5 35.6 40.1 58.4l-52.9 15c-7.3-16.8-17.2-30.5-29.5-40.8c-23.9-20-53.1-29.8-87.1-30.4c-42.6.4-75.9 12.2-98.9 35.4c-26.8 27.1-40.6 67.7-41.1 120.6c.5 52.9 14.3 93.6 41.1 120.6c23 23.2 56.3 35 98.9 35.4c35.9-.3 64.3-9.6 84.2-27.5c23.3-21.1 35-49.4 35-84.2c0-22-4.4-41.2-13.1-57.4c-7.8-14.4-18.4-25.7-31.6-33.5c-.7 16.7-2.6 32.1-5.5 46c-2.4 11.4-5.6 22.1-9.5 32.3c8.6 4 15.2 10.1 19.7 18.2c6.4 11.5 9.7 25.3 9.7 41.2c0 46.3-24.6 84.5-80.7 84.5c-52.5 0-85.4-38.1-85.4-85.7c0-57.3 41.7-88 86.2-89.3c1.6-.1 3.2-.1 4.9-.1c8.9 0 17.3.9 25 2.5l1.2-44.4c-8.2-2.1-16.9-3.2-25.9-3.4c-75.5-.2-145.3 50.5-145.3 137c0 79 61.7 138.6 138.5 138.6c83.2 0 133.5-57.3 133.5-123.4c0-38.9-13.9-69.3-41.4-90.4c-19.5-15-42.8-23.6-69.6-25.8zM241.4 304.7c-23.2.8-40.7 13.2-40.7 34.7c0 22 17.5 35.5 39.6 35.5c25.8 0 41.5-17.7 41.5-44.5c0-3-.2-5.9-.5-8.6c-12.3-10.1-26.2-15.6-39.9-17.1z"/>
</svg>
